<?xml version="1.0" encoding="utf-8"?>
<!-- Generator: Adobe Illustrator 19.2.1, SVG Export Plug-In . SVG Version: 6.00 Build 0)  -->
<svg version="1.1" id="layer" xmlns="http://www.w3.org/2000/svg" xmlns:xlink="http://www.w3.org/1999/xlink" x="0px" y="0px"
	 viewBox="0 0 652 652" style="enable-background:new 0 0 652 652;" xml:space="preserve">
<style type="text/css">
	.st0{fill:#193964;}
	.st1{fill:#EE3235;}
	.st2{fill:#FFFFFF;}
	.st3{fill:#0A0307;}
</style>
<g>
	<path class="st0" d="M20.1,322c0-47.9,45.1-86.7,100.7-86.7c55.6,0,100.7,38.8,100.7,86.7c0,47.8-45.1,86.7-100.7,86.7
		C65.2,408.7,20.1,369.9,20.1,322"/>
	<polygon class="st1" points="108.3,263.4 131.7,255.6 131.8,382.1 108.2,390.1 	"/>
	<path class="st1" d="M351.8,371.7c22.5,0,39.6-13.1,39.6-35.6c0-22.6-17.1-35.7-39.6-35.7c-22.5,0-39.6,13.1-39.6,35.7
		C312.2,358.6,329.3,371.7,351.8,371.7 M351.8,355.3c-10.8,0-15.3-9-15.3-19.1c0-10.2,4.5-19.2,15.3-19.2c10.9,0,15.3,9,15.3,19.2
		C367.1,346.2,362.6,355.3,351.8,355.3"/>
	<path class="st1" d="M389.2,319h13.5v27.7c0,16.2,5.1,25.5,26.1,25.5c5.9,0,10.3-0.8,14.8-1.3l-0.8-15.3c-2.4,0.4-4.8,0.9-7.2,0.9
		c-7.4,0-9.4-4.2-9.4-12.4V319h16.5v-16.5h-16.5l0-23.6l-23.1,8.3v15.3h-13.9V319z"/>
	<polygon class="st1" points="525.1,370.7 548.6,370.7 548.6,336.9 548.9,336.9 567.7,370.7 596.2,370.7 570.6,333.8 594.2,302.5 
		568.5,302.5 548.9,331.2 548.6,331.2 548.6,279 525.1,287.2 	"/>
	<polygon class="st1" points="249.5,370.7 273,370.7 273,336.9 273.3,336.9 292.1,370.7 320.6,370.7 295,333.8 318.7,302.5 
		292.9,302.5 273.3,331.2 273,331.2 273,279 249.5,286.8 	"/>
	<path class="st1" d="M516.7,371c-1.1-5.4-1.3-10.8-1.3-16.3V329c0-21-15.2-28.6-32.8-28.6c-10.2,0-19.1,1.5-27.5,4.9l0.4,16.1
		c6.6-3.7,14.3-5.2,22-5.2c8.6,0,15.6,2.5,15.7,11.9c-3-0.5-7.3-0.9-11.1-0.9c-12.7,0-35.6,2.5-35.6,23.6c0,15,12.2,21.7,25.8,21.7
		c9.8,0,16.4-3.9,21.8-12.4h0.3c0,3.6,0.4,7.1,0.5,10.8H516.7z M468.7,349.2c0-6.6,6.4-9.1,14.4-9.1c3.6,0,7,0.3,10,0.4
		c0,8.1-5.7,16.3-14.7,16.3C472.9,356.7,468.7,353.9,468.7,349.2"/>
	<path class="st2" d="M196.3,330.9c-2.2,18.1-12.3,36.4-34.5,36.4c-12.9,0-23.1-8.8-30.1-19.7v-12.6c8.8,4.4,16.9,9,26.9,9.2
		c12.2,0.2,23.3-4.5,27.9-13.3H196.3z M122.2,342.3c2.4-2.9,9-11.9,9-11.9c8.5-11.5,18.7-27.2,35.7-27.2c7.5,0,15,3.6,19,9.4h9.8
		c-3.4-18-15.6-35.5-37.3-35.5c-18.4,0-29.2,11.8-38.4,24.8c-1,1.4-7.6,10.2-9.9,13.2c-8.4,11.4-18.3,26.5-34.8,26.5
		c-10.8,0-21.6-7.4-21.8-18.3c-0.2-15.8,13.9-22.8,30-22.6c7.7,0.1,19.5,3.6,24.8,7.2l0-17.2c-6.3-7.1-16.9-13.8-27.9-13.8
		c-25.3,0-35,23.9-35,44.1c0,21,12.3,46.2,38.3,46.2C102.2,367,112,354.5,122.2,342.3"/>
	<path class="st3" d="M606.6,286.9h0.7c1.1,0,2.4,0.1,2.4,1.5c0,1.4-1.3,1.6-2.4,1.6h-0.7V286.9z M604.4,296.4h2.3v-4.7h0.7
		c0.9,0,1.2,0.3,1.6,1.2l1.4,3.5h2.5L611,292c-0.2-0.5-0.6-1.1-1.2-1.2v0c1.4-0.2,2.3-1.3,2.3-2.6c0-3.1-2.9-3.1-5.3-3.1h-2.5V296.4
		z"/>
	<path class="st3" d="M608,278.7L608,278.7c3.3,0,6.4,1.4,8.5,3.6c2.2,2.2,3.5,5.2,3.5,8.5h0v0h0c0,3.3-1.3,6.3-3.5,8.5
		c-2.2,2.2-5.2,3.5-8.5,3.5h0c-3.3,0-6.4-1.4-8.5-3.6c-2.2-2.2-3.5-5.2-3.5-8.5h0v0h0c0-3.3,1.3-6.4,3.6-8.5
		C601.7,280,604.7,278.7,608,278.7 M608,281.7L608,281.7c-2.5,0-4.8,1-6.4,2.7c-1.6,1.7-2.7,3.9-2.7,6.4h0v0h0c0,2.5,1,4.7,2.7,6.4
		c1.6,1.6,3.9,2.6,6.4,2.6h0c2.5,0,4.7-1,6.4-2.7c1.6-1.6,2.7-3.9,2.7-6.4v0c0-2.5-1-4.8-2.7-6.4C612.8,282.7,610.5,281.7,608,281.7
		"/>
</g>
</svg>
